<?xml version="1.0" encoding="utf-8"?>
<!-- Generator: Adobe Illustrator 27.9.0, SVG Export Plug-In . SVG Version: 6.00 Build 0)  -->
<svg version="1.1" id="EQ_Logo_Dark" xmlns="http://www.w3.org/2000/svg" xmlns:xlink="http://www.w3.org/1999/xlink" x="0px"
	 y="0px" viewBox="0 0 195 54.3" style="enable-background:new 0 0 195 54.3;" xml:space="preserve">
<style type="text/css">
	.st0{fill:#414042;}
	.st1{fill:#404042;}
	.st2{fill:#A28A64;}
</style>
<g>
	<g>
		<g>
			<path class="st0" d="M65.9,28.7h-4.2v0.4c0.2,0,0.5,0,0.8,0.1c0.6,0.1,0.7,0.5,0.8,1.4c0.1,0.8,0,18.1,0,18.1h2.6V28.7z"/>
			<path class="st0" d="M85.5,28.7H68.7v0.1c0,0-0.1,2.4-0.1,2.9h0.5c0,0,0,0,0,0l0-0.3c0.1-0.8,0.7-1.4,3.3-1.5l3.4-0.1l0,18.9h2.6
				V29.9l3.3,0.1c2.6,0.1,3.2,0.7,3.3,1.5l0,0.3c0,0,0,0,0,0h0.5C85.4,31.2,85.5,29.6,85.5,28.7C85.5,28.8,85.5,28.7,85.5,28.7"/>
			<path class="st0" d="M121.1,28.7H117v0.4c0.2,0,0.5,0,0.8,0.1c0.6,0.1,0.7,0.5,0.8,1.4c0.1,0.8,0,18.1,0,18.1h2.6V28.7z"/>
			<path class="st0" d="M114.5,28.7H97.6v0.1c0,0-0.1,2.4-0.1,2.9H98c0,0,0,0,0,0l0-0.3c0.1-0.8,0.7-1.4,3.3-1.5l3.4-0.1l0,18.9h2.6
				V29.9l3.3,0.1c2.6,0.1,3.2,0.7,3.3,1.5l0,0.3c0,0,0,0,0,0h0.5C114.4,31.2,114.5,29.6,114.5,28.7
				C114.5,28.8,114.5,28.7,114.5,28.7"/>
			<path class="st1" d="M58,28.7H56v11.1c0,2.7-0.3,4.9-1.5,6.4c-0.9,1.1-2.5,1.9-4.2,1.9c-1.5,0-2.7-0.2-4.1-1.4
				c-1.2-1.1-2-2.6-2-6.4l0-11.5h-1.3h0h0h-2.9v0.4c0.2,0,0.3,0,0.4,0c0.9,0.1,1.1,0.6,1.1,1.5c0.1,0.8,0.1,1.8,0.1,5.9v3.9
				c0,3.8,1.1,5.7,2.4,6.9c1.9,1.8,4.8,1.9,5.7,1.9c1.6,0,3.7-0.2,5.7-1.9c2.2-1.9,2.5-5,2.5-7.9V28.7z"/>
			<path class="st0" d="M144.3,28.7h-2.2h0h-1.2c0,0-4.9,13.1-6.4,16.7l-6.3-16.7h-1.3h0h0h-3.5v0.4c0.2,0,0.6,0,0.9,0.1
				c0.9,0.2,1.3,0.5,1.9,2l6.7,16.4c0.5,1.3,0.7,1.6,1,1.6c0.3,0,0.4-0.4,1.2-2c0.6-1.3,1.8-4.1,3.5-8c1.4-3.2,2.7-6.6,3-7.4
				c0.7-1.8,1.1-2.2,1.5-2.4c0.5-0.3,1-0.3,1.2-0.3V28.7z"/>
			<path class="st0" d="M3.9,48.8h9.9l0.6-3.5h-0.5c-0.2,1.2-0.6,1.7-1.4,2.1c-0.8,0.3-2.3,0.3-3.1,0.3c-3.1,0-4.4-0.4-4.4-2.4
				c0-0.6,0-7.6,0-7.6c0-0.1,0-0.2,0.2-0.2c0.5,0,4.6,0,5.4,0.1c1.2,0.1,1.5,0.5,1.6,0.9c0.1,0.2,0.1,0.3,0.1,0.4h0.5l0.3-2.7H5.4v0
				H5c-0.2,0-0.2-0.1-0.2-0.3V27c0-0.2,0-0.3,0.2-0.3c0.3,0,5.2,0,5.7,0.1c1.7,0.2,2,0.4,2.2,0.9c0.1,0.4,0.2,0.8,0.2,1.1
				c0,0,0,0,0,0.1h0.5l-0.1-3.3H0v0.4c0.3,0,0.5,0,0.7,0.1c1,0.1,1.2,0.6,1.3,1.7C2,28.5,2,47,2,47S2,48.8,3.9,48.8"/>
			<path class="st0" d="M100.9,48.3c-0.6-0.2-1.3-0.5-2.3-2.9c-1.7-4-6-15.1-6.5-16.2c-0.3-0.6-0.4-1-0.7-1c-0.2,0-0.3,0.2-0.6,1
				l-6.4,16.7c-0.5,1.3-1.2,2.5-2.6,2.5v0.3h2.5h0.7l5.7-16c0.2-0.4,0.3-0.4,0.5,0l2.7,7.5c0,0.1,0,0.2-0.1,0.2h-4l-0.4,1.1h4.8
				c0.2,0,0.2,0,0.2,0.2l2.9,7.1h4.6v-0.3C101.7,48.4,101.3,48.4,100.9,48.3"/>
			<path class="st0" d="M158.9,48.3c-0.6-0.2-1.3-0.5-2.3-2.9c-1.7-4-6-15.1-6.5-16.2c-0.3-0.6-0.4-1-0.6-1c-0.2,0-0.3,0.2-0.7,1
				l-6.4,16.7c-0.5,1.3-1.2,2.5-2.6,2.5v0.3h3.3l5.7-16c0.2-0.4,0.3-0.4,0.5,0l2.7,7.5c0,0.1,0,0.2-0.1,0.2h-4l-0.4,1.1h4.8
				c0.2,0,0.2,0,0.2,0.2l2.9,7.1h4.6v-0.3C159.7,48.4,159.3,48.4,158.9,48.3"/>
			<path class="st0" d="M28,48c-4.9,0-8.6-3.9-8.6-10c0-5.8,3.3-8.6,7.8-8.6c4.3,0,8.2,3.4,8.2,9.6C35.4,46.6,30.5,48,28,48
				 M56,51.9c-0.1,0-0.2,0.1-0.2,0.1c-1.9,0.7-4,1-5.3,1c-1.4,0-5.5-0.2-11.4-3.1l-5.6-2.8c1.8-1.1,4.8-4.2,4.8-8.8
				c0-6.1-4.6-9.9-10.8-9.9c-7.5,0-10.8,6-10.8,10.3c0,4.7,3.2,10.3,10.7,10.3c1.5,0,3.3-0.3,4.3-0.8l4.5,2.4
				c4.4,2.4,8,3.5,11.3,3.5c4,0,7.1-1.1,8.7-1.8L56,51.9z"/>
		</g>
		<g>
			<path class="st2" d="M190.3,34.3c0,0,0,0.1,0,0.1c-0.2,0.4-1.2,2.7-2.5,4.3c-0.7,1-2.1,1.3-3.5,1.3c-1.9,0.1-3.3-0.6-5-1.2
				c-0.8-0.3-1.4-0.4-2.3-0.3c-1.3,0.1-3,0.9-4.1,1.7c-1.7,1.3-3.2,2.9-4.1,4.8c-0.5,1.1-0.9,2.2-1.2,3.4c-0.3,1.2-0.5,2.3-0.7,3.5
				c-0.1,0.6-0.2,1.3-0.3,1.9c0,0.1,0,0.2,0,0.2c0,0.1,0,0.3,0,0.3l-0.8,0c0,0,0-0.7,0-1.6c0-1.2,0-2.9,0-3.5c0-2.4,0.2-4.9,1.1-7.2
				c0.4-1,0.9-1.9,1.6-2.7c1.3-1.7,3-3.2,5-4.1c1.9-0.9,4.1-1.2,6.2-0.6c0.6,0.2,1.1,0.4,1.6,0.7c1.4,0.7,3.2,0.9,4.4-0.5
				c0-0.1,0.1-0.1,0-0.2c-0.1-0.3-0.5-1.2-0.9-2.5c-1.6-4.3-4.7-12.7-5.1-14c0-0.1-0.1-0.1-0.2-0.1c-4.8,1.6-5.6,1.5-5.6,1.5
				c-1.4-0.2-3.6-3.3-4.4-4.5c0-0.1,0-0.2,0-0.2c0,0-0.1,0.1-0.1,0.1c-1.6,1.7-4.3,2.5-4.3,2.5l-0.5-0.8c1-0.9,0.9-2.3,0.9-2.3
				c-0.7-2.5-4.8-2.5-4.8-2.5c-3.2,0-6.5,1.1-9.5,2.1c-5.1,1.9-9.6,4.9-14.3,7.5c-5.1,2.7-10.6,4.3-16.4,4.2c-3.4,0-6.8,0-10.2,0V25
				c4.3-0.6,8.6-1.5,12.8-2.8c0.5-0.2,1-0.3,1.6-0.5c12.5-4.5,22.9-14.9,36.7-14.8c3.8,0,5.4,1.1,6,1.5c1.4,0.8,2.1,2,2.4,2.8
				c0.1,0.2,0.1,0.4,0.2,0.5c0,0,0,0.1,0,0.1c0,0,0-0.1,0-0.1c0-0.1,0.1-0.1,0.1-0.2c0.7-1.2,1.8-2.3,2.6-2.4c1-0.1,3.1,2.5,3.8,3.3
				c0.1,0.1,0.2,0.1,0.3,0l0.8-0.9c0,0,2.8-3.1,3.6-2.3c0.2,0.2,0.6,1.4,0.9,2.3c0,0.1,0.2,0.2,0.3,0.1c8.8-4.4,11.2-10.4,11.6-11.5
				c0-0.1,0.1-0.1,0.2-0.1l0.6,0.2l0,0c0.1,0,0.1,0.1,0.1,0.2c-0.9,6.8-4.1,10.4-5.2,11.5c-1.4,1.4-2.9,2.6-4.4,3.5
				c-0.5,0.3-0.9,0.6-1.4,0.8c-0.1,0-0.1,0.1-0.1,0.2l5.2,14.4c0,0,0.4,0.9,0.7,1.8C190,33.4,190.3,34,190.3,34.3"/>
		</g>
	</g>
</g>
</svg>
